<?xml version="1.0" standalone="no"?>
<!DOCTYPE svg PUBLIC "-//W3C//DTD SVG 20010904//EN"
 "http://www.w3.org/TR/2001/REC-SVG-20010904/DTD/svg10.dtd">
<svg version="1.0" xmlns="http://www.w3.org/2000/svg"
 width="128.000000pt" height="128.000000pt" viewBox="0 0 128.000000 128.000000"
 preserveAspectRatio="xMidYMid meet">
<metadata>
Created by potrace 1.14, written by Peter Selinger 2001-2017
</metadata>
<g transform="translate(0.000000,128.000000) scale(0.100000,-0.100000)"
fill="#000000" stroke="none">
<path d="M485 1110 c-82 -82 -155 -150 -160 -150 -6 0 -20 16 -32 36 l-20 36
-63 -107 c-50 -85 -60 -109 -49 -115 11 -7 10 -14 -9 -37 -12 -15 -34 -52 -49
-80 -26 -51 -29 -53 -68 -53 l-40 0 245 -245 c135 -135 248 -245 252 -245 3 0
23 24 44 53 21 28 65 86 99 127 149 182 155 203 71 268 -16 12 -24 22 -18 22
6 0 14 -5 17 -10 4 -6 10 -8 15 -5 15 10 76 -21 98 -50 27 -34 27 -54 2 -125
-11 -30 -19 -77 -20 -105 0 -53 16 -125 28 -125 4 0 106 99 227 220 l220 220
-78 0 c-67 0 -77 2 -77 18 0 9 -11 34 -25 55 -26 38 -26 38 14 49 10 3 -12 33
-64 89 -109 116 -399 409 -405 409 -3 0 -73 -67 -155 -150z m248 -220 l27 -24
35 34 35 34 65 -64 c35 -35 63 -66 60 -68 -2 -2 -20 1 -40 8 -28 9 -43 9 -66
0 -23 -10 -32 -10 -44 0 -21 17 -117 -5 -141 -32 -20 -21 -45 -23 -63 -5 -8 8
-7 0 3 -25 11 -24 12 -38 5 -40 -7 -2 -2 -19 12 -43 17 -29 19 -36 7 -27 -12
9 -38 13 -77 10 l-60 -3 19 33 c24 40 2 46 -24 7 -9 -14 -22 -23 -27 -19 -6 3
-29 34 -50 67 -38 58 -39 62 -19 69 17 6 18 11 8 33 -6 14 -16 25 -22 25 -6 1
34 43 89 95 l100 95 70 -68 c38 -37 82 -78 98 -92z"/>
<path d="M510 750 c-6 -11 -8 -20 -6 -20 3 0 10 9 16 20 6 11 8 20 6 20 -3 0
-10 -9 -16 -20z"/>
<path d="M730 590 c8 -5 20 -10 25 -10 6 0 3 5 -5 10 -8 5 -19 10 -25 10 -5 0
-3 -5 5 -10z"/>
</g>
</svg>
